<svg xmlns="http://www.w3.org/2000/svg" width="100%" height="100%" viewBox="0 0 62 50" fill="none" preserveAspectRatio="xMidYMid meet" aria-hidden="true" role="img">
<path d="M28.1309 0.450195L31.6561 49.5213H25.5088L20.2808 0.450195H28.1309Z" fill="currentColor"/>
<path d="M34.2675 0.450195L30.3071 49.5213H35.7854L41.9327 0.450195H34.2675Z" fill="currentColor"/>
<path d="M33.4962 37.6816H28.0669V48.1053H33.4962V37.6816Z" fill="currentColor"/>
<path d="M9.59099 43.4593C8.454 43.4593 7.81749 42.3729 7.81749 40.6185V27.3811C7.81749 26.235 8.60086 24.7575 9.8793 24.7575H12.6266V18.625H9.63993C3.60136 18.625 0 22.5685 0 28.4023V42.0633C0 47.2127 2.40999 49.9992 6.08753 49.9992C10.0262 49.9992 11.4842 45.7407 11.8106 43.481V40.8792L11.2666 40.9444C11.272 42.4436 10.5865 43.4593 9.59099 43.4593Z" fill="currentColor"/>
<path d="M9.49852 0C2.72553 0 0 5.16024 0 10.2607V16.4584H7.81749V8.62574C7.81749 7.25149 8.65527 6.56164 9.5801 6.56164C10.5049 6.56164 11.272 7.20803 11.272 8.44649V44.3563H11.9574L12.2186 49.4948H19.0895V9.7121C19.0895 3.82401 15.5534 0 9.49852 0Z" fill="currentColor"/>
<path d="M52.2482 43.4593C51.1167 43.4593 50.4802 42.3729 50.4802 40.6185V27.3811C50.4802 26.235 51.2636 24.7575 52.5366 24.7575H55.2893V18.625H52.3026C46.2641 18.625 42.6572 22.5685 42.6572 28.4023V42.0633C42.6572 47.2127 45.0672 49.9992 48.7448 49.9992C52.6889 49.9992 54.1468 45.7407 54.4733 43.481V40.8792L53.9292 40.9444C53.9292 42.4436 53.2438 43.4593 52.2482 43.4593Z" fill="currentColor"/>
<path d="M52.1602 0C45.3872 0 42.6345 5.16023 42.6345 10.2553V16.4584H50.4575V8.62574C50.4575 7.25149 51.2952 6.56164 52.2146 6.56164C53.134 6.56164 53.9065 7.20803 53.9065 8.44649V44.3563H54.592L54.8531 49.4948H61.7294V9.7121C61.7512 3.82401 58.2097 0 52.1602 0Z" fill="currentColor"/>
</svg>