<svg xml:space="preserve" style="enable-background:new 0 0 1080 589.5;" viewBox="0 0 1080 589.5" y="0px" x="0px" xmlns:xlink="http://www.w3.org/1999/xlink" xmlns="http://www.w3.org/2000/svg" id="a" version="1.1">
<style type="text/css">
	.st0{fill:#252425;}
</style>
<path d="M437.4,411l107.6-0.1c2.4,0,4.4-2,4.3-4.5l-1.7-39.9V263.7c0-51.6-33.3-76.9-93.8-76.9c-17,0-34.4,2.1-53.1,6.8
	c-1.7,0.4-2.9,1.8-3.2,3.5l-6,36.8c-0.5,3.1,2.4,5.6,5.4,4.8c14.7-4.4,29.5-6.9,44.6-6.9c34.7,0,46.4,12.2,46.4,35.6
	c0,3.3-3.5,5.3-6.4,3.7c-12.9-7.2-27.1-11.7-42.4-11.7c-47.4,0-81.6,32.8-81.6,75.5C357.7,378.1,392.9,411,437.4,411L437.4,411z
	 M453.9,300.3c20.6,0,36.1,14.5,36.1,33.3s-15.5,33.3-36.1,33.3c-20.2,0-35.2-14.5-35.2-33.3S433.7,300.3,453.9,300.3z" class="st0"></path>
<path d="M626.6,193.8l-55.7,6.9c-2.1,0.3-3.7,2.1-3.7,4.2v201.6c0,2.4,1.9,4.3,4.3,4.3h55.7c2.4,0,4.3-1.9,4.3-4.3V198
	C631.4,195.5,629.1,193.5,626.6,193.8L626.6,193.8z" class="st0"></path>
<path d="M655.3,410.8H711c2.4,0,4.3-1.9,4.3-4.3v-221L793,318c0.8,1.4,0.8,3.1-0.1,4.4l-52.1,81.8
	c-1.8,2.8,0.2,6.5,3.6,6.5h60.2c1.5,0,2.9-0.8,3.7-2.1l135.2-228.3c1.7-2.8-0.4-6.4-3.7-6.4h-59c-1.5,0-3,0.8-3.7,2.2l-45.7,82.5
	c-1.6,2.9-5.8,2.9-7.5,0l-45.3-82.5c-0.7-1.4-2.2-2.2-3.7-2.2h-59c-0.2,0-0.4,0.1-0.6,0.1v-70.4c0-2.6-2.2-4.5-4.8-4.2l-55.7,6.9
	c-2.1,0.3-3.7,2.1-3.7,4.2v296C651,408.9,652.9,410.8,655.3,410.8L655.3,410.8z" class="st0"></path>
<path d="M855.7,389.4c0,7,1.7,13.5,4.8,19.1c0.8,1.5,2.4,2.4,4.1,2.4h67.2c1.7,0,3.3-0.9,4.1-2.4
	c3.1-5.7,4.8-12.2,4.8-19.1c0-23-18.8-40.8-42.2-40.8C874.5,348.6,855.7,366.4,855.7,389.4L855.7,389.4z" class="st0"></path>
<path d="M598.1,169.9c23.4,0,42.2-17.8,42.2-40.8s-18.8-40.8-42.2-40.8c-23.9,0-42.7,17.8-42.7,40.8
	S574.2,169.9,598.1,169.9z" class="st0"></path>
<path d="M223.9,410.9h123.4c2.3,0,4.2-1.9,4.2-4.2v-302c0-3.3-2.9-5.9-6.2-5.5l-52.8,6.6c-2.8,0.3-4.8,2.7-4.8,5.5v100
	c0,0.4-0.5,0.6-0.8,0.3c-15.9-16.3-37.6-25.4-62.9-25.4c-57.7,0-105.5,49.2-105.5,112.1C118.4,361.6,166.2,410.9,223.9,410.9
	L223.9,410.9z M240.4,240.8c29.8,2.1,52.5,26.6,52.5,57.5c0,32.8-24.9,58.2-56.7,58.2c-30.7,0-54.2-22.7-56.6-53.1
	C176.9,268.6,205.6,238.3,240.4,240.8z" class="st0"></path>
<path d="M123.2,431.8H957c2.4,0,4.4,2,4.4,4.4v61.7c0,2.4-2,4.4-4.4,4.4H123.2c-2.4,0-4.4-2-4.4-4.4v-61.7
	C118.8,433.8,120.8,431.8,123.2,431.8z" class="st0"></path>
</svg>
