<svg fill="none" xmlns="http://www.w3.org/2000/svg" viewBox="0 0 80 22" id="logo">
    <g clip-path="url(#clip0_2218_19095)">
      <path
        d="M45.8822 11.0493C45.8575 9.19955 45.2393 7.6704 44.003 6.46188C42.7667 5.27803 41.209 4.6861 39.305 4.6861C37.4011 4.6861 35.8186 5.27803 34.5823 6.46188C33.3213 7.6704 32.7031 9.17489 32.7031 11.0247C32.7031 12.8744 33.3213 14.3789 34.5823 15.5628C35.8186 16.7466 37.4011 17.3386 39.305 17.3386C40.8133 17.3386 42.1733 16.9193 43.3601 16.0561C44.547 15.1928 45.3135 14.1076 45.6597 12.7758H42.4205C41.9508 13.8856 40.7392 14.7242 39.3298 14.7242C37.6484 14.7242 36.3132 13.6144 35.9175 12.0112H45.7833C45.8575 11.7399 45.8822 11.4193 45.8822 11.0493ZM39.3298 7.30045C40.8875 7.30045 42.2475 8.21301 42.742 9.56951H36.0412C36.5604 8.18834 37.8215 7.30045 39.3298 7.30045Z"
        fill="black"></path>
      <path
        d="M59.8941 11.0493C59.8694 9.19955 59.2512 7.6704 58.0149 6.46188C56.7786 5.27803 55.2208 4.6861 53.3169 4.6861C51.413 4.6861 49.8305 5.27803 48.5942 6.46188C47.3332 7.6704 46.715 9.17489 46.715 11.0247C46.715 12.8744 47.3332 14.3789 48.5942 15.5628C49.8305 16.7466 51.413 17.3386 53.3169 17.3386C54.8252 17.3386 56.1852 16.9193 57.372 16.0561C58.5589 15.1928 59.3254 14.1076 59.6716 12.7758H56.4324C55.9626 13.8856 54.751 14.7242 53.3416 14.7242C51.6603 14.7242 50.325 13.6144 49.9294 12.0112H59.7952C59.8694 11.7399 59.8941 11.4193 59.8941 11.0493ZM53.3416 7.30045C54.8994 7.30045 56.2593 8.21301 56.7539 9.56951H50.053C50.5723 8.18834 51.8333 7.30045 53.3416 7.30045Z"
        fill="black"></path>
      <path d="M61.3945 17.1166H64.6089V0H61.3945V17.1166Z" fill="black"></path>
      <path
        d="M72.3741 12.6031L68.9619 4.93274H65.5249L70.8658 15.8094L67.7256 22H71.0883L79.0749 4.93274H75.7122L72.3741 12.6031Z"
        fill="black"></path>
      <path d="M28.8603 4.93311H32.5342L24.1153 17.1174H20.4414L28.8603 4.93311Z" fill="black"></path>
      <path d="M20.7852 4.93311H29.8025V7.68053H20.7852V4.93311Z" fill="black"></path>
      <path d="M23.2617 14.3691H31.9322V17.1166H23.2617V14.3691Z" fill="black"></path>
      <path fill-rule="evenodd" clip-rule="evenodd"
        d="M15.8744 12.875C15.8257 13.0782 15.7692 13.2783 15.7053 13.4752H0.389547C0.325641 13.2783 0.26915 13.0782 0.220405 12.875H15.8744ZM13.1248 17.2278H2.97002C2.73866 17.0399 2.51797 16.8395 2.30899 16.6276H13.7858C13.5768 16.8395 13.3562 17.0399 13.1248 17.2278ZM1.77349 16.0275L1.77231 16.026H14.3225L14.3213 16.0275H1.77349ZM0.890272 14.6739C1.0243 14.9331 1.17206 15.1841 1.3326 15.4259H14.7622C14.9227 15.1841 15.0705 14.9331 15.2045 14.6739H0.890272ZM8.0474 19.0265C6.96466 19.0265 5.93185 18.8133 4.98891 18.4266H11.1059C10.163 18.8133 9.13015 19.0265 8.0474 19.0265ZM0.0280342 11.679C0.0113192 11.48 0.00188558 11.2789 0 11.076H16.0948C16.0929 11.2789 16.0835 11.48 16.0668 11.679H0.0280342ZM0.0777698 9.87724C0.113515 9.62256 0.161243 9.37172 0.220368 9.12528H15.8744C15.9336 9.37172 15.9813 9.62256 16.017 9.87724H0.0777698ZM0.389964 8.52372L0.389492 8.52517H15.7053L15.7048 8.52372H0.389964ZM0.611997 7.92361C0.697149 7.71913 0.790535 7.51892 0.891741 7.32338H15.2031C15.3043 7.51892 15.3977 7.71913 15.4828 7.92361H0.611997ZM1.65394 6.12461C1.81469 5.91523 1.98555 5.71398 2.16579 5.52159H13.929C14.1093 5.71398 14.2801 5.91523 14.4409 6.12461H1.65394ZM8.0474 2.97363C9.70023 2.97363 11.2367 3.47057 12.5147 4.32281H3.58007C4.85813 3.47057 6.39458 2.97363 8.0474 2.97363Z"
        fill="black"></path>
      <path fill-rule="evenodd" clip-rule="evenodd"
        d="M6.91135 6.12463C7.24706 5.68739 7.62683 5.28559 8.04406 4.92583H2.78697C2.36974 5.28559 1.98997 5.68739 1.65427 6.12463H6.91135ZM6.49252 6.72474H1.23545C0.995053 7.10496 0.785775 7.5067 0.611179 7.92643H5.86825C6.04285 7.5067 6.25213 7.10496 6.49252 6.72474ZM0.0781191 9.87727C0.143263 9.41312 0.248208 8.96169 0.389403 8.52653H5.64647C5.50528 8.96169 5.40033 9.41312 5.33518 9.87727H0.0781191ZM0.0167918 10.4774C0.0056545 10.6502 0 10.8245 0 11.0001C0 11.2278 0.00950699 11.4533 0.0281467 11.6762H5.28521C5.26657 11.4533 5.25706 11.2278 5.25706 11.0001C5.25706 10.8245 5.26272 10.6502 5.27385 10.4774H0.0167918ZM0.390847 13.4781C0.264552 13.0896 0.167149 12.6882 0.101167 12.2763H5.35822C5.42421 12.6882 5.52161 13.0896 5.6479 13.4781H0.390847ZM0.61303 14.0782C0.810498 14.5521 1.05219 15.003 1.33297 15.4259H6.59001C6.30924 15.003 6.06755 14.5521 5.87008 14.0782H0.61303ZM2.9704 17.2278C2.53013 16.8703 2.12849 16.4673 1.77269 16.026H7.02973C7.38553 16.4673 7.78716 16.8703 8.22743 17.2278H2.9704ZM3.81492 17.8279C5.04461 18.5878 6.49481 19.0265 8.04776 19.0265C8.96819 19.0265 9.85253 18.8724 10.6763 18.5887C10.1102 18.3937 9.57279 18.1374 9.07195 17.8279H3.81492ZM10.6763 3.41153C10.0192 3.63789 9.40067 3.94677 8.83315 4.32573H3.57605C4.85498 3.4717 6.39305 2.97363 8.04776 2.97363C8.96821 2.97363 9.85258 3.12775 10.6763 3.41153Z"
        fill="black"></path>
    </g>
    <defs>
      <clipPath id="clip0_2218_19095">
        <rect width="79.0625" height="22" fill="white"></rect>
      </clipPath>
    </defs>
  </svg>